<svg id="visual" viewBox="0 0 960 300" width="960" height="300" xmlns="http://www.w3.org/2000/svg" xmlns:xlink="http://www.w3.org/1999/xlink" version="1.1"><rect x="0" y="0" width="960" height="300" fill="#001220"></rect><path d="M0 212L22.8 212.2C45.7 212.3 91.3 212.7 137 212.5C182.7 212.3 228.3 211.7 274 210.7C319.7 209.7 365.3 208.3 411.2 206.3C457 204.3 503 201.7 548.8 201C594.7 200.3 640.3 201.7 686 199C731.7 196.3 777.3 189.7 823 187.7C868.7 185.7 914.3 188.3 937.2 189.7L960 191L960 301L937.2 301C914.3 301 868.7 301 823 301C777.3 301 731.7 301 686 301C640.3 301 594.7 301 548.8 301C503 301 457 301 411.2 301C365.3 301 319.7 301 274 301C228.3 301 182.7 301 137 301C91.3 301 45.7 301 22.8 301L0 301Z" fill="#fa7268"></path><path d="M0 207L22.8 206.7C45.7 206.3 91.3 205.7 137 203.8C182.7 202 228.3 199 274 203.8C319.7 208.7 365.3 221.3 411.2 224.8C457 228.3 503 222.7 548.8 217.7C594.7 212.7 640.3 208.3 686 208.3C731.7 208.3 777.3 212.7 823 214.5C868.7 216.3 914.3 215.7 937.2 215.3L960 215L960 301L937.2 301C914.3 301 868.7 301 823 301C777.3 301 731.7 301 686 301C640.3 301 594.7 301 548.8 301C503 301 457 301 411.2 301C365.3 301 319.7 301 274 301C228.3 301 182.7 301 137 301C91.3 301 45.7 301 22.8 301L0 301Z" fill="#e45a85"></path><path d="M0 220L22.8 221.5C45.7 223 91.3 226 137 230.3C182.7 234.7 228.3 240.3 274 240.2C319.7 240 365.3 234 411.2 230C457 226 503 224 548.8 227.7C594.7 231.3 640.3 240.7 686 240.8C731.7 241 777.3 232 823 226.7C868.7 221.3 914.3 219.7 937.2 218.8L960 218L960 301L937.2 301C914.3 301 868.7 301 823 301C777.3 301 731.7 301 686 301C640.3 301 594.7 301 548.8 301C503 301 457 301 411.2 301C365.3 301 319.7 301 274 301C228.3 301 182.7 301 137 301C91.3 301 45.7 301 22.8 301L0 301Z" fill="#bb539d"></path><path d="M0 257L22.8 256.3C45.7 255.7 91.3 254.3 137 252C182.7 249.7 228.3 246.3 274 247.7C319.7 249 365.3 255 411.2 257.5C457 260 503 259 548.8 259C594.7 259 640.3 260 686 258.3C731.7 256.7 777.3 252.3 823 254C868.7 255.7 914.3 263.3 937.2 267.2L960 271L960 301L937.2 301C914.3 301 868.7 301 823 301C777.3 301 731.7 301 686 301C640.3 301 594.7 301 548.8 301C503 301 457 301 411.2 301C365.3 301 319.7 301 274 301C228.3 301 182.7 301 137 301C91.3 301 45.7 301 22.8 301L0 301Z" fill="#7f55aa"></path><path d="M0 272L22.8 271.5C45.7 271 91.3 270 137 272.3C182.7 274.7 228.3 280.3 274 280C319.7 279.7 365.3 273.3 411.2 269.8C457 266.3 503 265.7 548.8 268.5C594.7 271.3 640.3 277.7 686 281.2C731.7 284.7 777.3 285.3 823 283.8C868.7 282.3 914.3 278.7 937.2 276.8L960 275L960 301L937.2 301C914.3 301 868.7 301 823 301C777.3 301 731.7 301 686 301C640.3 301 594.7 301 548.8 301C503 301 457 301 411.2 301C365.3 301 319.7 301 274 301C228.3 301 182.7 301 137 301C91.3 301 45.7 301 22.8 301L0 301Z" fill="#2356a6"></path></svg>